<svg width="814" height="814" viewBox="0 0 814 814" fill="none" xmlns="http://www.w3.org/2000/svg">
<path d="M716 99H408V408H716V99Z" fill="white"/>
<path d="M343.748 343.748C314.774 372.722 275.476 389 234.5 389C193.524 389 154.226 372.722 125.252 343.748C96.2776 314.774 80 275.476 80 234.5C80 193.524 96.2776 154.226 125.252 125.252C154.226 96.2776 193.524 80 234.5 80C275.476 80 314.774 96.2776 343.748 125.252C372.722 154.226 389 193.524 389 234.5C389 275.476 372.722 314.774 343.748 343.748Z" fill="white"/>
<path d="M624.642 624.789C682.497 567.028 715 488.687 715 407L98 407C98 488.687 130.503 567.028 188.358 624.789C246.213 682.55 324.681 715 406.5 715C488.319 715 566.787 682.55 624.642 624.789Z" fill="white"/>
</svg>
