<svg width="1531" height="1531" viewBox="0 0 1531 1531" fill="none" xmlns="http://www.w3.org/2000/svg">
<rect width="1531" height="1531" rx="765.5" fill="#13212B"/>
<g clip-path="url(#clip0)">
<path d="M1159.64 922.334C1201.19 1061.45 1017.72 1233.25 830.632 1233.25C643.54 1233.25 737.327 1054.52 666.89 927.593C602.429 811.432 837.046 924.59 938.256 713.816C1040.71 727.646 1139.7 850.632 1159.64 922.334Z" fill="url(#paint0_linear)"/>
<path d="M620.251 161.001C620.251 161.001 612.537 189.552 611.175 208.755C609.885 226.935 626.796 261.035 626.796 261.035L486.475 258.904C486.475 258.904 437.989 307.597 409.738 326.772C386.015 342.873 333 365.6 333 365.6C333 365.6 332.983 425.084 384.156 485.101C423.63 531.398 497.347 527.996 497.347 527.996L608.342 432.454L645.479 432.262L673.817 447.155L374.518 1010.55C402.279 1257.38 562.586 1363.74 761.175 1369.79C959.764 1375.85 1141.91 1249.47 1198 1010.55C1183.18 915.77 1126.25 845.177 1092.61 815.432L1034.84 829.418C1070.6 839.192 999.816 853.75 1019.42 885.25C1039.02 916.751 1046.24 955.747 1039.24 992.19C1032.23 1028.63 1010.37 1062.66 981.182 1084.12C951.994 1105.58 913.018 1116.28 876.187 1112.07C845.26 1108.53 837.415 1104.25 813.314 1084.53C789.213 1064.81 770.423 1038.93 757.562 1010.56C731.84 953.798 730.026 888.655 739.8 827.102C749.574 765.55 770.285 706.375 788.307 646.718C806.329 587.061 821.852 525.693 820.743 463.378C819.922 417.248 809.576 371.57 791.379 329.193C761.55 277.615 716.687 261.035 716.687 261.035C716.687 261.035 710.231 253.951 707.566 249.986C697.264 234.656 692.836 218.239 681.324 201.179C656.345 164.163 620.251 161 620.251 161V161.001Z" fill="url(#paint1_linear)"/>
<path opacity="0.391026" d="M361.956 453.686L551.467 379.338L639.558 269.196L626.796 261.036L486.476 258.903C486.476 258.903 438.16 308.339 409.738 327.578C386.094 343.581 333 365.599 333 365.599C333 365.599 333.115 375.696 336.794 391.756C340.472 407.816 361.956 429.837 361.956 453.686V453.686Z" fill="url(#paint2_linear)"/>
<path d="M937.772 725.69L931.743 653.261C931.743 653.261 979.286 632.057 1032.89 633.872C1082.66 635.556 1124.64 680.453 1124.64 680.453C1124.64 680.453 1078.49 715.514 1059.28 736.985C1041.16 757.238 1013.1 804.186 1013.1 804.186L937.772 725.69Z" fill="#FFA945"/>
</g>
<defs>
<linearGradient id="paint0_linear" x1="982.203" y1="840.862" x2="750.155" y2="1021.1" gradientUnits="userSpaceOnUse">
<stop stop-color="#FFA945"/>
<stop offset="1" stop-color="#7D1E03"/>
</linearGradient>
<linearGradient id="paint1_linear" x1="162.363" y1="1108.78" x2="1018.45" y2="1014.06" gradientUnits="userSpaceOnUse">
<stop stop-color="#FF8138"/>
<stop offset="1" stop-color="#FFA945"/>
</linearGradient>
<linearGradient id="paint2_linear" x1="535.248" y1="376.464" x2="502.197" y2="253.25" gradientUnits="userSpaceOnUse">
<stop stop-color="#FF5B09" stop-opacity="0"/>
<stop offset="1" stop-color="#FF5858"/>
</linearGradient>
<clipPath id="clip0">
<rect x="333" y="161" width="865" height="1209" rx="432.5" fill="white"/>
</clipPath>
</defs>
</svg>
